HIERARCHY
ROOT Hips
{
	OFFSET 0.000000 0.000000 0.000000
	CHANNELS 6 Xposition Yposition Zposition Zrotation Yrotation Xrotation 
	JOINT Spine1
	{
		OFFSET -0.013727 5.003763 -0.053727
		CHANNELS 3 Zrotation Yrotation Xrotation
		JOINT Spine2
		{
			OFFSET -0.000000 7.125302 -0.029825
			CHANNELS 3 Zrotation Yrotation Xrotation
			JOINT Chest
			{
				OFFSET -0.000001 7.550064 -0.815971
				CHANNELS 3 Zrotation Yrotation Xrotation
				JOINT Neck1
				{
					OFFSET -0.181676 26.311296 -0.553348
					CHANNELS 3 Zrotation Yrotation Xrotation
					JOINT Neck2
					{
						OFFSET -0.000003 7.709399 2.302586
						CHANNELS 3 Zrotation Yrotation Xrotation
						JOINT Head
						{
							OFFSET -0.000005 6.128913 1.953709
							CHANNELS 3 Zrotation Yrotation Xrotation
							JOINT HeadEnd
							{
								OFFSET 0.003598 16.065401 -1.835380
								CHANNELS 3 Zrotation Yrotation Xrotation
								End Site
								{
									OFFSET 0.000000 0.000000 0.000000
								}
							}
							JOINT Jaw
							{
								OFFSET 0.002637 0.475591 3.094940
								CHANNELS 3 Zrotation Yrotation Xrotation
								End Site
								{
									OFFSET 0.000000 0.000000 0.000000
								}
							}
							JOINT LeftEye
							{
								OFFSET 3.206381 5.380207 7.586883
								CHANNELS 3 Zrotation Yrotation Xrotation
								End Site
								{
									OFFSET 0.000000 0.000000 0.000000
								}
							}
							JOINT RightEye
							{
								OFFSET -3.222440 5.361867 7.558232
								CHANNELS 3 Zrotation Yrotation Xrotation
								End Site
								{
									OFFSET 0.000000 0.000000 0.000000
								}
							}
						}
					}
				}
				JOINT LeftShoulder
				{
					OFFSET 1.621652 23.237165 5.113413
					CHANNELS 3 Zrotation Yrotation Xrotation
					JOINT LeftArm
					{
						OFFSET 14.919845 0.000000 -5.502326
						CHANNELS 3 Zrotation Yrotation Xrotation
						JOINT LeftForeArm
						{
							OFFSET 28.739309 0.000003 -0.002588
							CHANNELS 3 Zrotation Yrotation Xrotation
							JOINT LeftHand
							{
								OFFSET 27.093983 -0.000003 0.002609
								CHANNELS 3 Zrotation Yrotation Xrotation
								JOINT LeftHandThumb1
								{
									OFFSET 2.276480 -1.392046 3.191413
									CHANNELS 3 Zrotation Yrotation Xrotation
									JOINT LeftHandThumb2
									{
										OFFSET 4.012842 -1.828126 1.641656
										CHANNELS 3 Zrotation Yrotation Xrotation
										JOINT LeftHandThumb3
										{
											OFFSET 2.798516 0.000000 -0.000003
											CHANNELS 3 Zrotation Yrotation Xrotation
											JOINT LeftHandThumbEnd
											{
												OFFSET 3.180791 -0.000001 0.000003
												CHANNELS 3 Zrotation Yrotation Xrotation
												End Site
												{
													OFFSET 0.000000 0.000000 0.000000
												}
											}
										}
									}
								}
								JOINT LeftHandIndex1
								{
									OFFSET 3.247554 -0.531998 2.296169
									CHANNELS 3 Zrotation Yrotation Xrotation
									JOINT LeftHandIndex2
									{
										OFFSET 6.364580 0.012062 0.178600
										CHANNELS 3 Zrotation Yrotation Xrotation
										JOINT LeftHandIndex3
										{
											OFFSET 3.662366 0.000001 0.000000
											CHANNELS 3 Zrotation Yrotation Xrotation
											JOINT LeftHandIndex4
											{
												OFFSET 2.329243 0.000002 0.000004
												CHANNELS 3 Zrotation Yrotation Xrotation
												JOINT LeftHandIndexEnd
												{
													OFFSET 2.759619 -0.180539 -0.113024
													CHANNELS 3 Zrotation Yrotation Xrotation
													End Site
													{
														OFFSET 0.000000 0.000000 0.000000
													}
												}
											}
										}
									}
								}
								JOINT LeftHandMiddle1
								{
									OFFSET 3.163499 0.240981 1.000332
									CHANNELS 3 Zrotation Yrotation Xrotation
									JOINT LeftHandMiddle2
									{
										OFFSET 6.190778 -0.259276 -1.002549
										CHANNELS 3 Zrotation Yrotation Xrotation
										JOINT LeftHandMiddle3
										{
											OFFSET 4.356523 -0.000006 -0.000000
											CHANNELS 3 Zrotation Yrotation Xrotation
											JOINT LeftHandMiddle4
											{
												OFFSET 2.996875 -0.000007 0.000000
												CHANNELS 3 Zrotation Yrotation Xrotation
												JOINT LeftHandMiddleEnd
												{
													OFFSET 2.304294 -0.294571 -0.031740
													CHANNELS 3 Zrotation Yrotation Xrotation
													End Site
													{
														OFFSET 0.000000 0.000000 0.000000
													}
												}
											}
										}
									}
								}
								JOINT LeftHandRing1
								{
									OFFSET 2.882642 -0.053650 -0.322543
									CHANNELS 3 Zrotation Yrotation Xrotation
									JOINT LeftHandRing2
									{
										OFFSET 5.854543 -0.486203 -1.373841
										CHANNELS 3 Zrotation Yrotation Xrotation
										JOINT LeftHandRing3
										{
											OFFSET 4.350581 0.000000 0.000004
											CHANNELS 3 Zrotation Yrotation Xrotation
											JOINT LeftHandRing4
											{
												OFFSET 2.651324 0.000008 0.000003
												CHANNELS 3 Zrotation Yrotation Xrotation
												JOINT LeftHandRingEnd
												{
													OFFSET 1.936111 0.077685 -0.000070
													CHANNELS 3 Zrotation Yrotation Xrotation
													End Site
													{
														OFFSET 0.000000 0.000000 0.000000
													}
												}
											}
										}
									}
								}
								JOINT LeftHandPinky1
								{
									OFFSET 2.865499 -0.310004 -1.600378
									CHANNELS 3 Zrotation Yrotation Xrotation
									JOINT LeftHandPinky2
									{
										OFFSET 5.087853 -1.331142 -1.771231
										CHANNELS 3 Zrotation Yrotation Xrotation
										JOINT LeftHandPinky3
										{
											OFFSET 3.070975 0.000003 0.000001
											CHANNELS 3 Zrotation Yrotation Xrotation
											JOINT LeftHandPinky4
											{
												OFFSET 1.549668 -0.000000 0.000001
												CHANNELS 3 Zrotation Yrotation Xrotation
												JOINT LeftHandPinkyEnd
												{
													OFFSET 1.944895 -0.157802 0.057219
													CHANNELS 3 Zrotation Yrotation Xrotation
													End Site
													{
														OFFSET 0.000000 0.000000 0.000000
													}
												}
											}
										}
									}
								}
							}
						}
					}
				}
				JOINT RightShoulder
				{
					OFFSET -1.380118 23.180309 5.214158
					CHANNELS 3 Zrotation Yrotation Xrotation
					JOINT RightArm
					{
						OFFSET -15.037197 0.000012 -5.545604
						CHANNELS 3 Zrotation Yrotation Xrotation
						JOINT RightForeArm
						{
							OFFSET -28.736639 0.000003 -0.002597
							CHANNELS 3 Zrotation Yrotation Xrotation
							JOINT RightHand
							{
								OFFSET -27.133617 0.000000 0.002613
								CHANNELS 3 Zrotation Yrotation Xrotation
								JOINT RightHandThumb1
								{
									OFFSET -2.274036 -1.383990 3.163127
									CHANNELS 3 Zrotation Yrotation Xrotation
									JOINT RightHandThumb2
									{
										OFFSET -4.011429 -1.827467 1.640914
										CHANNELS 3 Zrotation Yrotation Xrotation
										JOINT RightHandThumb3
										{
											OFFSET -2.794934 -0.000004 -0.000003
											CHANNELS 3 Zrotation Yrotation Xrotation
											JOINT RightHandThumbEnd
											{
												OFFSET -3.183855 0.000003 0.000000
												CHANNELS 3 Zrotation Yrotation Xrotation
												End Site
												{
													OFFSET 0.000000 0.000000 0.000000
												}
											}
										}
									}
								}
								JOINT RightHandIndex1
								{
									OFFSET -3.253269 -0.520060 2.282866
									CHANNELS 3 Zrotation Yrotation Xrotation
									JOINT RightHandIndex2
									{
										OFFSET -6.341918 0.012473 0.178265
										CHANNELS 3 Zrotation Yrotation Xrotation
										JOINT RightHandIndex3
										{
											OFFSET -3.654875 -0.000008 -0.000001
											CHANNELS 3 Zrotation Yrotation Xrotation
											JOINT RightHandIndex4
											{
												OFFSET -2.327586 -0.000000 0.000001
												CHANNELS 3 Zrotation Yrotation Xrotation
												JOINT RightHandIndexEnd
												{
													OFFSET -2.761789 -0.180657 -0.113079
													CHANNELS 3 Zrotation Yrotation Xrotation
													End Site
													{
														OFFSET 0.000000 0.000000 0.000000
													}
												}
											}
										}
									}
								}
								JOINT RightHandMiddle1
								{
									OFFSET -3.168106 0.246593 1.001031
									CHANNELS 3 Zrotation Yrotation Xrotation
									JOINT RightHandMiddle2
									{
										OFFSET -6.180830 -0.258835 -1.000896
										CHANNELS 3 Zrotation Yrotation Xrotation
										JOINT RightHandMiddle3
										{
											OFFSET -4.348905 -0.000000 -0.000000
											CHANNELS 3 Zrotation Yrotation Xrotation
											JOINT RightHandMiddle4
											{
												OFFSET -3.000243 -0.000004 -0.000003
												CHANNELS 3 Zrotation Yrotation Xrotation
												JOINT RightHandMiddleEnd
												{
													OFFSET -2.302518 -0.294371 -0.031706
													CHANNELS 3 Zrotation Yrotation Xrotation
													End Site
													{
														OFFSET 0.000000 0.000000 0.000000
													}
												}
											}
										}
									}
								}
								JOINT RightHandRing1
								{
									OFFSET -2.885693 -0.067952 -0.308858
									CHANNELS 3 Zrotation Yrotation Xrotation
									JOINT RightHandRing2
									{
										OFFSET -5.854197 -0.486132 -1.373732
										CHANNELS 3 Zrotation Yrotation Xrotation
										JOINT RightHandRing3
										{
											OFFSET -4.338814 -0.000003 -0.000000
											CHANNELS 3 Zrotation Yrotation Xrotation
											JOINT RightHandRing4
											{
												OFFSET -2.654905 -0.000004 0.000004
												CHANNELS 3 Zrotation Yrotation Xrotation
												JOINT RightHandRingEnd
												{
													OFFSET -1.933570 0.077524 -0.000052
													CHANNELS 3 Zrotation Yrotation Xrotation
													End Site
													{
														OFFSET 0.000000 0.000000 0.000000
													}
												}
											}
										}
									}
								}
								JOINT RightHandPinky1
								{
									OFFSET -2.866429 -0.342798 -1.584145
									CHANNELS 3 Zrotation Yrotation Xrotation
									JOINT RightHandPinky2
									{
										OFFSET -5.091370 -1.332054 -1.772385
										CHANNELS 3 Zrotation Yrotation Xrotation
										JOINT RightHandPinky3
										{
											OFFSET -3.062666 -0.000007 0.000001
											CHANNELS 3 Zrotation Yrotation Xrotation
											JOINT RightHandPinky4
											{
												OFFSET -1.546527 0.000006 -0.000003
												CHANNELS 3 Zrotation Yrotation Xrotation
												JOINT RightHandPinkyEnd
												{
													OFFSET -1.945122 -0.157721 0.057211
													CHANNELS 3 Zrotation Yrotation Xrotation
													End Site
													{
														OFFSET 0.000000 0.000000 0.000000
													}
												}
											}
										}
									}
								}
							}
						}
					}
				}
			}
		}
	}
	JOINT LeftLeg
	{
		OFFSET 10.043214 -8.434526 2.595655
		CHANNELS 3 Zrotation Yrotation Xrotation
		JOINT LeftShin
		{
			OFFSET -0.000002 -43.221752 -0.802913
			CHANNELS 3 Zrotation Yrotation Xrotation
			JOINT LeftFoot
			{
				OFFSET 0.000002 -42.155094 -3.481522
				CHANNELS 3 Zrotation Yrotation Xrotation
				JOINT LeftToeBase
				{
					OFFSET 0.000000 -5.059475 13.231529
					CHANNELS 3 Zrotation Yrotation Xrotation
					JOINT LeftToeEnd
					{
						OFFSET -0.009607 -1.647615 6.513017
						CHANNELS 3 Zrotation Yrotation Xrotation
						End Site
						{
							OFFSET 0.000000 0.000000 0.000000
						}
					}
				}
			}
		}
	}
	JOINT RightLeg
	{
		OFFSET -10.047277 -8.295259 2.620317
		CHANNELS 3 Zrotation Yrotation Xrotation
		JOINT RightShin
		{
			OFFSET 0.000001 -43.362209 -0.805555
			CHANNELS 3 Zrotation Yrotation Xrotation
			JOINT RightFoot
			{
				OFFSET 0.000002 -42.117393 -3.478397
				CHANNELS 3 Zrotation Yrotation Xrotation
				JOINT RightToeBase
				{
					OFFSET -0.000001 -5.079609 13.284196
					CHANNELS 3 Zrotation Yrotation Xrotation
					JOINT RightToeEnd
					{
						OFFSET 0.009532 -1.634383 6.460591
						CHANNELS 3 Zrotation Yrotation Xrotation
						End Site
						{
							OFFSET 0.000000 0.000000 0.000000
						}
					}
				}
			}
		}
	}
}
MOTION
Frames: 4
Frame Time: 0.033333
-3.799693 96.645638 -4.349800 -6.076393 -0.943319 -8.230890 1.537169 -0.123925 1.524554 -0.460030 -1.075470 -4.497417 3.768529 -3.304770 14.320436 -0.330041 3.319997 22.144384 1.083525 6.026904 -3.618651 -5.254773 7.805669 -15.277092 0.000077 -0.000023 0.000006 0.017536 -0.166495 0.073062 0.676611 -3.872829 -10.661687 -0.649782 3.544491 -10.624918 -2.823630 -20.822721 8.556605 -29.091024 -28.930265 -32.329998 -178.442505 -54.782177 179.483154 20.056416 -6.815183 -7.233045 -5.882101 9.861278 0.702590 -10.936859 -0.360574 7.156197 -0.000001 8.774811 -0.000001 -16.567322 18.133686 5.876869 -1.844029 2.498502 -2.507275 -10.163587 4.678938 4.621104 -20.975992 -0.000004 0.000002 -21.226250 2.451692 -3.593993 0.000001 -0.000006 0.000000 -1.362678 2.240796 -0.746323 -21.334892 0.584909 3.008321 -13.821191 -0.000003 0.000002 -23.887131 -0.249078 -0.839481 -60.137619 2.846311 -1.476455 -0.294025 1.679686 0.833255 -14.218194 0.093214 1.300579 -34.211998 -0.287563 0.967170 -20.033176 0.964535 1.212842 -0.000000 -0.000000 0.000000 -3.440385 0.788232 0.501655 -15.928167 -3.167306 2.999704 -6.338815 -0.000001 0.000001 -18.123411 3.648176 -4.905661 -0.000003 -0.000000 -0.000002 7.384851 21.666075 5.848692 67.078087 56.579975 17.379791 -179.918625 69.204544 -179.897552 -4.445248 14.354890 -5.044296 2.243539 -5.255032 -3.180155 14.282875 -0.826594 6.952496 -0.000000 -12.690587 0.000001 15.771166 -18.264540 3.198663 1.665665 -1.955920 -2.878297 4.727793 -4.170582 4.993918 11.020512 0.000003 -0.000001 12.109031 -3.735708 -2.866779 0.000001 0.000000 0.000000 1.291984 -1.928547 -1.498089 14.800113 0.567467 3.865605 14.242554 -1.341734 -6.660647 19.631937 0.143926 -0.648243 49.850224 -0.938550 -6.255848 0.353030 -1.511150 -0.031941 20.222767 3.684305 2.316627 18.787245 0.000004 -0.000001 10.751610 -0.479870 1.397903 -0.000001 -0.000001 -0.000000 3.273803 0.305947 -0.580109 21.486790 11.830360 2.266131 8.162917 -0.000002 0.000001 18.399054 -3.798979 -4.940566 0.000003 -0.000002 -0.000001 20.844931 21.676043 -3.625643 -0.167161 -0.649434 30.405972 -11.859394 0.135258 -12.543489 1.665307 -1.881572 -4.178045 0.000000 0.000001 0.000002 -2.765922 -17.338705 1.104181 0.088104 0.301483 21.949125 5.101429 14.572516 -12.227279 -1.434825 0.828838 -4.923091 0.000000 0.000000 -0.000001 
-3.326991 96.535454 -4.056836 -5.786188 -1.288870 -8.505450 1.516124 -0.132165 1.362735 -0.415262 -1.130494 -4.549600 3.889193 -3.213602 14.399137 -0.605849 3.463581 22.209404 1.084630 6.097270 -3.611053 -5.519909 8.012728 -15.038133 0.000077 -0.000022 0.000006 0.024473 -0.166189 0.091434 0.670669 -3.883506 -10.646450 -0.631660 3.557465 -10.616445 -3.148988 -20.663542 8.619158 -28.986710 -28.688093 -32.235523 -178.570129 -55.248959 179.418472 19.950617 -7.214997 -7.552040 -5.882102 9.861278 0.702590 -10.936859 -0.360574 7.156197 0.000001 8.774811 -0.000001 -16.578825 18.131382 5.875378 -1.844031 2.498502 -2.507276 -10.163592 4.678941 4.621103 -20.975998 -0.000003 0.000003 -21.226257 2.451694 -3.593992 0.000000 -0.000006 -0.000000 -1.362679 2.240797 -0.746323 -21.334896 0.584909 3.008321 -13.821198 -0.000002 0.000002 -23.887133 -0.249078 -0.839481 -60.134716 2.724197 -1.474800 -0.294023 1.679686 0.833255 -14.218194 0.093215 1.300579 -34.211998 -0.287562 0.967169 -20.033180 0.964535 1.212841 0.000000 -0.000000 0.000000 -3.440386 0.788233 0.501655 -15.928173 -3.167306 2.999704 -6.338818 -0.000001 0.000001 -18.123413 3.648177 -4.905661 -0.000005 -0.000000 -0.000002 7.724985 21.783958 6.000996 67.693283 56.572445 18.113411 -179.636108 69.704185 -179.537994 -4.294362 14.458076 -5.106757 2.243540 -5.255034 -3.180153 14.282877 -0.826595 6.952496 0.000001 -12.690593 -0.000000 15.694839 -18.139519 3.249426 1.665666 -1.955920 -2.878297 4.727793 -4.170583 4.993917 11.020510 0.000003 -0.000001 12.109033 -3.735712 -2.866780 -0.000001 0.000000 0.000001 1.291983 -1.928548 -1.498088 14.800111 0.567468 3.865601 14.242554 -1.341736 -6.660648 19.631937 0.143925 -0.648244 49.711628 -0.873799 -6.211016 0.353028 -1.511150 -0.031941 20.222767 3.684305 2.316628 18.787245 0.000004 -0.000001 10.751610 -0.479870 1.397904 -0.000001 0.000001 -0.000000 3.273802 0.305947 -0.580111 21.486790 11.830365 2.266130 8.162916 -0.000001 0.000001 18.399054 -3.798980 -4.940569 0.000003 -0.000002 -0.000001 20.452902 21.612093 -3.102749 -0.166730 -0.625454 30.754629 -11.686344 0.600235 -13.248734 1.661510 -1.920467 -4.090894 0.000000 0.000001 0.000002 -3.563173 -17.202072 1.348738 0.081752 0.309824 22.414782 5.233284 14.986814 -12.541487 -1.438755 0.784303 -5.055058 -0.000000 0.000000 -0.000001 
-2.744433 96.424484 -3.800717 -5.314123 -1.622168 -8.836468 1.438022 -0.104899 1.209319 -0.398842 -1.201874 -4.639044 4.042505 -3.056990 14.453228 -0.931340 3.676600 22.252035 1.108328 6.175854 -3.586385 -5.723823 8.064843 -14.905828 0.000077 -0.000022 0.000006 0.028358 -0.166037 0.103323 0.668276 -3.887011 -10.624827 -0.621610 3.560295 -10.601011 -3.515780 -20.510935 8.677570 -28.988195 -28.432856 -32.041706 -178.738358 -55.733498 179.466675 19.845989 -7.590554 -7.710721 -5.882101 9.861277 0.702591 -10.936859 -0.360575 7.156197 0.000001 8.774811 -0.000000 -16.541466 18.086250 5.897897 -1.844031 2.498502 -2.507275 -10.163591 4.678939 4.621105 -20.975998 -0.000005 0.000004 -21.226257 2.451692 -3.593991 0.000000 -0.000006 -0.000000 -1.362680 2.240796 -0.746322 -21.334890 0.584908 3.008321 -13.821198 -0.000003 0.000003 -23.887133 -0.249079 -0.839479 -60.173512 2.656796 -1.472692 -0.294026 1.679686 0.833255 -14.218190 0.093214 1.300580 -34.212006 -0.287564 0.967172 -20.033178 0.964535 1.212843 0.000000 -0.000000 0.000000 -3.440385 0.788232 0.501655 -15.928169 -3.167306 2.999703 -6.338818 -0.000002 0.000002 -18.123413 3.648176 -4.905660 -0.000004 -0.000000 -0.000002 8.106413 21.857197 6.210201 68.217659 56.466343 18.754528 -179.776276 70.178696 -179.586823 -4.282698 14.577942 -5.201404 2.243541 -5.255033 -3.180157 14.282877 -0.826596 6.952497 -0.000001 -12.690592 0.000001 15.455709 -18.042900 3.341072 1.665665 -1.955920 -2.878297 4.727792 -4.170582 4.993919 11.020511 0.000003 -0.000001 12.109031 -3.735710 -2.866780 -0.000000 0.000000 0.000000 1.291985 -1.928548 -1.498086 14.800114 0.567466 3.865602 14.242553 -1.341735 -6.660648 19.631937 0.143926 -0.648246 49.504128 -0.818605 -6.150497 0.353029 -1.511149 -0.031941 20.222767 3.684304 2.316626 18.787243 0.000004 -0.000004 10.751610 -0.479868 1.397902 -0.000001 -0.000001 -0.000001 3.273804 0.305947 -0.580110 21.486790 11.830361 2.266132 8.162917 0.000000 0.000000 18.399052 -3.798979 -4.940567 0.000003 -0.000001 -0.000001 19.834042 21.701206 -2.536987 -0.165831 -0.584702 31.111254 -11.549981 0.868668 -13.824245 1.658276 -1.941718 -3.940925 0.000000 0.000002 0.000002 -4.620690 -16.913786 1.558127 0.094786 0.303293 22.980143 5.300309 15.415482 -12.901560 -1.436977 0.748511 -5.099945 -0.000000 -0.000000 -0.000001 
-2.128838 96.297478 -3.497176 -4.690463 -1.921821 -9.172988 1.298371 -0.110540 1.029487 -0.361403 -1.166356 -4.708376 4.148685 -2.941000 14.454952 -1.288996 3.883052 22.216902 1.138779 6.220972 -3.557552 -5.885533 8.115808 -14.804581 0.000077 -0.000022 0.000006 0.025881 -0.145640 0.105292 0.661743 -3.861591 -10.602687 -0.619932 3.574492 -10.582218 -3.865151 -20.259449 8.734653 -29.085966 -28.211658 -31.874958 -178.759918 -56.095348 179.456528 19.779013 -7.906711 -7.802909 -5.882099 9.861278 0.702591 -10.936858 -0.360575 7.156197 0.000002 8.774815 -0.000002 -16.491970 18.057770 5.924860 -1.844030 2.498502 -2.507275 -10.163589 4.678941 4.621105 -20.975992 -0.000004 0.000004 -21.226250 2.451694 -3.593992 -0.000001 -0.000006 0.000000 -1.362681 2.240796 -0.746323 -21.334887 0.584909 3.008321 -13.821197 -0.000002 0.000003 -23.887131 -0.249077 -0.839480 -60.037727 2.669818 -1.468972 -0.294025 1.679686 0.833255 -14.218194 0.093214 1.300580 -34.211998 -0.287563 0.967172 -20.033178 0.964535 1.212842 -0.000000 0.000000 0.000000 -3.440386 0.788232 0.501656 -15.928165 -3.167307 2.999704 -6.338818 -0.000001 0.000002 -18.123411 3.648177 -4.905659 -0.000005 -0.000000 -0.000002 8.419047 21.893751 6.378645 68.879272 56.207211 19.382574 179.761536 70.518623 -179.870865 -4.292072 14.588851 -5.593017 2.243539 -5.255033 -3.180156 14.282877 -0.826595 6.952497 -0.000001 -12.690590 0.000001 15.341456 -18.016159 3.366583 1.665665 -1.955920 -2.878296 4.727793 -4.170583 4.993918 11.020512 0.000003 -0.000001 12.109034 -3.735710 -2.866781 0.000001 -0.000001 -0.000000 1.291985 -1.928547 -1.498087 14.800111 0.567468 3.865601 14.242554 -1.341734 -6.660650 19.631937 0.143927 -0.648244 49.453934 -0.778535 -6.112162 0.353029 -1.511149 -0.031941 20.222769 3.684306 2.316627 18.787245 0.000005 -0.000002 10.751612 -0.479869 1.397904 -0.000000 0.000001 -0.000000 3.273805 0.305947 -0.580110 21.486792 11.830364 2.266130 8.162917 0.000000 0.000000 18.399054 -3.798978 -4.940567 0.000003 -0.000003 -0.000000 19.069530 21.942709 -1.895973 -0.158970 -0.547599 31.390137 -11.431453 0.966407 -14.422138 1.656925 -1.952275 -3.775306 -0.000000 0.000000 0.000002 -5.871030 -16.588472 1.720419 0.117814 0.318864 23.685839 5.360509 15.797159 -13.372742 -1.435449 0.735309 -5.097794 -0.000000 0.000000 -0.000001 
